HIERARCHY
ROOT Hips
{
	OFFSET -0.001795 -0.223333 0.028219
	CHANNELS 6 Xposition Yposition Zposition Zrotation Yrotation Xrotation 
	JOINT LeftUpLeg
	{
		OFFSET 0.069520 -0.091406 -0.006815
		CHANNELS 3 Zrotation Yrotation Xrotation
		JOINT LeftLeg
		{
			OFFSET 0.034277 -0.375199 -0.004496
			CHANNELS 3 Zrotation Yrotation Xrotation
			JOINT LeftFoot
			{
				OFFSET -0.013596 -0.397961 -0.043693
				CHANNELS 3 Zrotation Yrotation Xrotation
				JOINT LeftToe
				{
					OFFSET 0.026358 -0.055791 0.119288
					CHANNELS 3 Zrotation Yrotation Xrotation
					End Site
					{
						OFFSET 0.000000 0.000000 0.000000
					}
				}
			}
		}
	}
	JOINT RightUpLeg
	{
		OFFSET -0.067670 -0.090522 -0.004320
		CHANNELS 3 Zrotation Yrotation Xrotation
		JOINT RightLeg
		{
			OFFSET -0.038290 -0.382569 -0.008850
			CHANNELS 3 Zrotation Yrotation Xrotation
			JOINT RightFoot
			{
				OFFSET 0.015774 -0.398415 -0.042312
				CHANNELS 3 Zrotation Yrotation Xrotation
				JOINT RightToe
				{
					OFFSET -0.025372 -0.048144 0.123348
					CHANNELS 3 Zrotation Yrotation Xrotation
					End Site
					{
						OFFSET 0.000000 0.000000 0.000000
					}
				}
			}
		}
	}
	JOINT Spine
	{
		OFFSET -0.002533 0.108963 -0.026696
		CHANNELS 3 Zrotation Yrotation Xrotation
		JOINT Spine1
		{
			OFFSET 0.005487 0.135180 0.001092
			CHANNELS 3 Zrotation Yrotation Xrotation
			JOINT Spine2
			{
				OFFSET 0.001457 0.052922 0.025425
				CHANNELS 3 Zrotation Yrotation Xrotation
				JOINT Neck
				{
					OFFSET -0.002778 0.213870 -0.042857
					CHANNELS 3 Zrotation Yrotation Xrotation
					JOINT Head
					{
						OFFSET 0.005152 0.064970 0.051349
						CHANNELS 3 Zrotation Yrotation Xrotation
						End Site
						{
							OFFSET 0.000000 0.000000 0.000000
						}
					}
				}
				JOINT LeftShoulder
				{
					OFFSET 0.078845 0.121749 -0.034090
					CHANNELS 3 Zrotation Yrotation Xrotation
					JOINT LeftArm
					{
						OFFSET 0.090977 0.030469 -0.008868
						CHANNELS 3 Zrotation Yrotation Xrotation
						JOINT LeftForeArm
						{
							OFFSET 0.259612 -0.012772 -0.027456
							CHANNELS 3 Zrotation Yrotation Xrotation
							JOINT LeftHand
							{
								OFFSET 0.249234 0.008986 -0.001171
								CHANNELS 3 Zrotation Yrotation Xrotation
								End Site
								{
									OFFSET 0.000000 0.000000 0.000000
								}
							}
						}
					}
				}
				JOINT RightShoulder
				{
					OFFSET -0.081759 0.118833 -0.038615
					CHANNELS 3 Zrotation Yrotation Xrotation
					JOINT RightArm
					{
						OFFSET -0.096012 0.032551 -0.009143
						CHANNELS 3 Zrotation Yrotation Xrotation
						JOINT RightForeArm
						{
							OFFSET -0.253742 -0.013329 -0.021401
							CHANNELS 3 Zrotation Yrotation Xrotation
							JOINT RightHand
							{
								OFFSET -0.255298 0.007772 -0.005559
								CHANNELS 3 Zrotation Yrotation Xrotation
								End Site
								{
									OFFSET 0.000000 0.000000 0.000000
								}
							}
						}
					}
				}
			}
		}
	}
}
MOTION
Frames: 7
Frame Time: 0.050000
0.014913 0.954197 -0.000924 -1.372624 -5.038581 2.668455 6.270150 -0.353221 -9.323144 -4.098125 0.765224 17.977140 5.813049 12.863739 5.425106 0.000000 0.000000 0.000000 -4.912074 0.841799 -10.794322 3.537564 0.074717 19.690408 -3.644491 -9.418431 0.881444 0.000000 0.000000 0.000000 7.700165 -0.874521 7.222436 -5.881220 1.863398 -28.169281 -0.860453 9.066596 32.232655 10.799481 -1.494288 -41.050791 0.000000 0.000000 0.000000 -10.458594 -4.364464 0.798641 -50.146503 -19.324735 -0.899993 -102.495121 -78.011867 95.951671 0.000000 0.000000 0.000000 19.762528 -6.739325 -3.328602 58.234881 14.314930 -1.858117 80.741187 69.235098 71.017143 0.000000 0.000000 0.000000 
0.014941 0.953927 0.001059 -1.120922 -4.836135 2.763590 5.919380 -0.313646 -7.097063 -3.365001 0.486805 14.225629 5.691688 12.802275 6.739576 0.000000 0.000000 0.000000 -5.182151 0.669289 -8.250697 3.160053 0.015430 14.892686 -3.368762 -8.934146 1.433068 0.000000 0.000000 0.000000 7.898636 -0.696993 5.364369 -5.575288 1.817266 -26.986573 -1.155260 9.069024 31.635069 10.281391 -1.164013 -41.586449 0.000000 0.000000 0.000000 -13.118310 -3.656018 0.206140 -51.347021 -13.878930 -3.037063 -69.491411 -70.656009 56.768387 0.000000 0.000000 0.000000 21.845599 -7.865141 -4.153310 57.948427 9.338719 -4.303384 58.334058 62.900219 45.637382 0.000000 0.000000 0.000000 
0.014474 0.952738 0.001916 -1.145053 -4.419278 2.682070 5.769090 -0.265556 -5.418955 -2.586496 0.268782 11.923959 5.724346 12.830463 6.239946 0.000000 0.000000 0.000000 -4.775943 0.622872 -7.413114 2.427048 0.099428 12.820153 -3.411833 -9.240208 2.064305 0.000000 0.000000 0.000000 7.950917 -0.631434 4.721701 -5.572260 1.818002 -27.172732 -1.241999 8.510417 32.077906 10.490199 -1.342690 -41.369561 0.000000 0.000000 0.000000 -14.940466 -3.865949 0.211064 -51.639825 -10.137641 -4.605101 -44.610521 -62.069701 31.268226 0.000000 0.000000 0.000000 23.681429 -8.758220 -4.944104 57.455415 5.739071 -6.115218 39.521359 54.521598 26.711925 0.000000 0.000000 0.000000 
0.013639 0.952405 0.001832 -1.091669 -4.569516 2.489680 5.437283 -0.244593 -4.665958 -2.134194 0.171503 10.909281 5.715498 12.848285 6.581114 0.000000 0.000000 0.000000 -4.242032 0.566232 -6.381109 1.307574 0.259527 10.953521 -3.406046 -9.349953 2.457073 0.000000 0.000000 0.000000 7.961149 -0.590691 4.392427 -5.546882 1.823476 -26.487621 -1.514115 8.181799 31.800713 9.891395 -1.115682 -41.552825 0.000000 0.000000 0.000000 -16.297177 -3.437033 -0.044183 -52.858850 -6.258791 -6.292935 -30.689221 -51.708327 17.936713 0.000000 0.000000 0.000000 24.341709 -9.388132 -5.567610 57.756236 2.894117 -7.424419 26.026495 45.495029 14.997684 0.000000 0.000000 0.000000 
0.012444 0.952803 0.001085 -1.023114 -4.602222 2.665572 5.380585 -0.232933 -4.293270 -1.888777 0.122516 10.162692 5.528381 12.502240 6.488674 0.000000 0.000000 0.000000 -4.006464 0.557410 -6.173824 1.041487 0.269209 9.964742 -3.484573 -9.594303 2.661156 0.000000 0.000000 0.000000 7.969766 -0.582546 4.274789 -5.886872 1.894353 -26.675125 -1.483246 7.845194 32.053145 10.095655 -1.262932 -41.570218 0.000000 0.000000 0.000000 -16.584502 -2.723410 -0.345387 -54.353714 -3.086825 -7.877433 -22.077687 -41.786739 10.683918 0.000000 0.000000 0.000000 24.968462 -9.961883 -6.141748 57.874744 1.145975 -8.264996 17.820945 36.420033 8.535182 0.000000 0.000000 0.000000 
0.011085 0.953268 -0.000078 -1.140434 -4.572418 2.510276 5.349557 -0.203725 -3.635159 -1.536454 0.057150 9.087676 5.777754 13.030342 7.229583 0.000000 0.000000 0.000000 -3.491811 0.493925 -5.217411 0.385838 0.303896 8.145581 -3.442718 -9.788058 3.589394 0.000000 0.000000 0.000000 8.021678 -0.560485 4.086580 -5.335937 1.781705 -26.149247 -1.954535 8.256952 32.124602 9.914540 -1.087824 -41.875613 0.000000 0.000000 0.000000 -16.097753 -1.578074 -0.984995 -55.647308 0.140341 -9.519223 -17.733846 -34.455892 7.188040 0.000000 0.000000 0.000000 25.104950 -11.471254 -7.044501 58.062124 -2.335149 -9.861967 13.095692 28.778371 5.194831 0.000000 0.000000 0.000000 
0.009774 0.952976 -0.001319 -1.057916 -4.791260 2.730210 5.198472 -0.221712 -3.942204 -1.586531 0.070670 9.177166 5.866525 13.151887 6.985987 0.000000 0.000000 0.000000 -3.094009 0.480254 -4.973002 -0.215592 0.377023 7.564564 -3.348700 -9.398216 3.016757 0.000000 0.000000 0.000000 8.139853 -0.594951 4.313980 -5.960329 1.914762 -26.386239 -1.781670 8.313734 32.854307 10.074503 -1.159835 -42.179998 0.000000 0.000000 0.000000 -16.153342 -0.361273 -1.566381 -56.105151 3.607740 -11.248769 -15.311792 -29.719222 5.488008 0.000000 0.000000 0.000000 24.280728 -12.800651 -7.817536 58.350670 -6.925752 -12.013649 12.050688 24.364091 4.014581 0.000000 0.000000 0.000000 
